<?xml version="1.0" encoding="UTF-8" standalone="no"?>
<!DOCTYPE svg PUBLIC "-//W3C//DTD SVG 1.1//EN" "http://www.w3.org/Graphics/SVG/1.1/DTD/svg11.dtd">
<svg width="100%" height="100%" viewBox="0 0 1042 622" version="1.1" xmlns="http://www.w3.org/2000/svg" xmlns:xlink="http://www.w3.org/1999/xlink" xml:space="preserve" xmlns:serif="http://www.serif.com/" style="fill-rule:evenodd;clip-rule:evenodd;stroke-linejoin:round;stroke-miterlimit:2;">
    <g transform="matrix(1,0,0,1,-360,-929)">
        <g id="Shell-Black-Line" serif:id="Shell Black Line" transform="matrix(1,0,0,1,-1750,0)">
            <path d="M2829.91,931.041C2826.58,931.898 2817.82,933.803 2810.39,935.422C2792.58,939.041 2781.34,943.517 2775.43,948.946C2771.72,952.47 2770.39,953.136 2768.1,952.66C2766.58,952.374 2762.77,952.946 2759.62,953.898C2754.01,955.612 2738.77,963.612 2732.86,967.803C2731.24,969.041 2726.77,971.898 2722.86,974.184C2719.05,976.47 2711.43,982.089 2705.91,986.755C2690.58,999.612 2683.72,1008.57 2680.67,1019.61C2679.24,1024.95 2678.1,1026.76 2673.34,1031.42C2669.15,1035.52 2666.48,1039.42 2662.96,1046.57C2656.48,1059.99 2654.39,1069.42 2654.2,1086.85C2654.01,1099.42 2654.2,1101.52 2656.1,1105.33C2658.01,1109.14 2658.1,1109.8 2656.67,1112.47C2653.43,1119.04 2655.72,1154.85 2660.48,1170.76C2663.24,1180.18 2664.58,1182.66 2671.24,1190.66C2675.62,1195.8 2678.01,1197.8 2681.62,1199.14C2688.86,1201.71 2687.82,1203.42 2678.86,1203.42C2672.01,1203.42 2661.24,1204.95 2650.39,1207.52C2647.91,1208.09 2639.72,1209.8 2632.29,1211.42C2618.01,1214.37 2591.05,1221.42 2583.43,1224.18C2580.96,1225.04 2577.05,1227.23 2574.86,1228.95C2571.34,1231.8 2561.91,1237.04 2548.1,1243.99C2543.62,1246.28 2533.91,1249.9 2508.39,1258.57C2502.1,1260.76 2491.91,1263.61 2485.91,1265.04C2479.82,1266.37 2472.2,1268.18 2468.86,1269.14C2465.24,1270.09 2458.1,1270.85 2450.86,1270.94C2434.77,1271.23 2422.01,1273.99 2416.48,1278.47C2410.77,1283.14 2411.05,1284.85 2418.1,1286.37C2424.1,1287.8 2450.39,1288.09 2457.91,1286.85C2460.1,1286.47 2461.62,1286.47 2461.43,1286.66C2461.15,1286.94 2453.62,1289.9 2444.77,1293.23C2424.01,1301.04 2400.96,1312.57 2390.39,1320.37C2379.43,1328.47 2375.72,1330.56 2363.82,1335.33C2351.53,1340.28 2345.91,1341.42 2333.82,1341.52C2322.39,1341.61 2321.24,1341.04 2306.67,1329.61C2280.86,1309.42 2276.1,1305.8 2272.58,1303.99C2257.62,1296.28 2237.34,1293.14 2220.67,1295.9C2198.58,1299.52 2179.34,1306.57 2167.62,1315.33C2164.2,1317.8 2161.43,1320.18 2161.43,1320.37C2161.43,1320.66 2168.77,1321.04 2177.82,1321.14C2197.05,1321.42 2211.34,1323.8 2220.29,1328.37C2223.34,1329.99 2232.2,1336.37 2239.91,1342.56C2247.62,1348.76 2257.53,1356.28 2261.91,1359.14C2272.2,1365.99 2268.86,1365.33 2248.86,1356.56L2233.91,1349.9L2223.91,1349.99C2214.77,1349.99 2213.34,1350.28 2207.34,1353.14C2198.48,1357.42 2193.72,1361.42 2189.24,1368.18C2184.96,1374.66 2183.34,1382.76 2185.34,1387.23C2186.01,1388.76 2186.58,1390.09 2186.58,1390.37C2186.48,1390.94 2179.91,1393.14 2174.01,1394.47C2163.53,1397.04 2144.29,1407.61 2134.39,1416.28C2130.77,1419.52 2131.72,1420.56 2135.91,1417.8C2140.01,1415.14 2149.34,1413.42 2162.96,1412.76C2174.2,1412.28 2177.34,1412.47 2186.39,1414.37C2197.43,1416.76 2213.62,1421.61 2215.72,1423.14C2217.91,1424.85 2240.86,1433.71 2247.05,1435.42C2249.43,1435.99 2251.53,1436.85 2251.82,1437.33C2252.2,1437.9 2254.77,1439.04 2257.62,1439.99C2260.48,1440.94 2265.34,1442.94 2268.39,1444.47C2274.1,1447.33 2290.77,1452.76 2297.91,1454.09L2301.91,1454.85L2297.43,1455.52C2294.96,1455.9 2285.72,1456.76 2276.96,1457.52C2261.62,1458.76 2260.77,1458.76 2252.58,1456.66C2244.96,1454.66 2230.96,1448.85 2216.86,1441.8C2214.1,1440.37 2208.2,1436.76 2203.72,1433.71C2199.24,1430.76 2194.96,1428.37 2194.2,1428.56C2191.91,1429.14 2194.77,1441.42 2198.96,1449.42C2200.86,1452.94 2202.39,1456.28 2202.39,1456.76C2202.39,1457.23 2203.24,1458.85 2204.29,1460.37L2206.29,1463.04L2193.05,1465.71C2154.39,1473.52 2134.96,1485.52 2117.53,1511.99C2110.96,1521.99 2109.05,1526.37 2111.24,1526.37C2111.72,1526.37 2112.67,1525.8 2113.34,1524.94C2114.01,1524.18 2122.77,1519.04 2132.86,1513.52C2149.43,1504.37 2152.77,1502.94 2166.86,1498.94C2186.1,1493.42 2201.62,1491.23 2217.91,1491.9C2232.67,1492.37 2240.1,1494.28 2252.39,1500.47L2261.91,1505.23L2255.91,1507.9C2243.82,1513.23 2227.24,1516.76 2205.72,1518.47L2192.48,1519.52L2183.62,1516.47C2177.05,1514.18 2160.96,1510.47 2157.62,1510.47C2157.53,1510.47 2157.72,1511.04 2158.01,1511.8C2158.39,1512.94 2167.34,1519.61 2174.29,1523.9C2175.15,1524.47 2178.58,1526.66 2181.82,1528.76C2195.91,1537.99 2206.58,1542.09 2229.43,1546.94C2261.34,1553.71 2289.15,1549.71 2307.82,1535.61L2311.72,1532.66L2316.77,1534.66C2319.62,1535.71 2325.53,1537.61 2330.01,1538.85C2334.48,1540.09 2338.58,1541.42 2339.05,1541.71C2339.53,1541.99 2345.72,1542.94 2352.86,1543.9C2365.43,1545.42 2366.29,1545.42 2378.39,1543.52C2391.43,1541.42 2422.58,1531.9 2432.01,1527.14C2438.1,1523.99 2449.34,1513.8 2451.91,1508.94C2454.39,1504.37 2460.96,1499.99 2476.77,1492.37C2487.53,1487.14 2513.34,1478.47 2518.01,1478.37C2519.24,1478.37 2525.15,1481.9 2533.43,1487.42C2536.2,1489.33 2559.62,1500.47 2560.77,1500.37C2561.15,1500.37 2564.86,1502.47 2568.96,1504.94C2573.05,1507.42 2576.67,1509.42 2576.96,1509.42C2577.62,1509.42 2581.05,1510.85 2596.39,1517.42C2600.01,1518.94 2604.67,1520.76 2606.86,1521.42C2609.05,1522.09 2614.96,1524.09 2619.91,1525.9C2626.48,1528.28 2633.24,1529.71 2645.43,1531.33C2654.48,1532.47 2664.48,1533.99 2667.62,1534.56C2678.01,1536.56 2697.34,1533.23 2699.53,1529.14C2701.05,1526.28 2699.82,1525.99 2696.58,1528.28C2693.91,1530.18 2692.2,1530.37 2682.2,1530.37C2672.39,1530.37 2653.15,1528.47 2634.39,1525.52C2629.34,1524.76 2602.77,1515.9 2594.39,1512.18C2592.48,1511.33 2588.01,1509.42 2584.39,1507.9C2580.77,1506.37 2570.96,1501.71 2562.39,1497.61C2553.82,1493.52 2545.05,1489.42 2542.86,1488.56C2536.58,1486.09 2516.48,1474.28 2512.48,1470.76C2509.15,1467.8 2508.96,1467.23 2508.58,1460.18C2508.29,1454.28 2508.67,1451.23 2510.77,1444.85C2514.67,1432.47 2519.91,1420.85 2526.48,1409.42C2529.91,1403.61 2534.48,1395.8 2536.67,1391.9C2542.77,1381.33 2556.2,1361.42 2560.39,1356.85C2562.39,1354.66 2566.39,1349.52 2569.24,1345.42C2581.05,1328.37 2579.62,1330.09 2601.53,1305.04C2613.05,1291.8 2625.53,1279.42 2627.24,1279.42C2627.91,1279.42 2628.39,1278.85 2628.39,1278.18C2628.39,1276.76 2644.39,1260.47 2645.72,1260.47C2646.58,1260.57 2660.39,1250.09 2666.86,1244.37C2674.48,1237.71 2678.96,1234.66 2691.05,1228.09C2697.82,1224.37 2703.62,1221.42 2703.91,1221.42C2704.29,1221.42 2707.82,1219.42 2711.91,1216.95C2716.01,1214.47 2719.72,1212.37 2720.1,1212.37C2720.96,1212.37 2722.67,1211.04 2733.24,1201.52C2741.91,1193.71 2746.86,1190.76 2753.62,1189.52C2758.29,1188.66 2759.34,1188.85 2762.39,1190.76C2767.72,1193.99 2776.86,1198.28 2787.43,1202.47C2792.58,1204.47 2796.96,1206.85 2797.15,1207.52C2797.24,1208.28 2795.43,1210.09 2793.15,1211.42C2786.48,1215.42 2776.1,1226.37 2771.34,1234.47C2768.96,1238.57 2766.2,1242.95 2765.24,1244.28C2764.2,1245.61 2762.29,1249.04 2760.96,1251.9C2759.53,1254.85 2756.1,1260.95 2753.24,1265.52C2741.62,1284.28 2738.2,1290.37 2734.29,1299.42C2732.01,1304.66 2728.48,1312.28 2726.48,1316.37C2722.2,1325.04 2718.2,1335.04 2715.53,1344.47C2714.48,1347.99 2712.29,1354.37 2710.58,1358.56C2707.43,1366.94 2703.43,1382.47 2700.86,1397.33C2699.91,1402.56 2698.77,1407.9 2698.29,1409.14C2697.82,1410.37 2696.77,1417.61 2695.91,1425.14C2694.96,1432.76 2693.53,1441.8 2692.58,1445.42C2691.24,1450.56 2690.96,1456.37 2690.96,1473.9C2690.96,1497.33 2691.62,1501.14 2698.2,1519.52C2703.82,1535.23 2706.39,1537.23 2723.15,1538.56C2729.62,1539.04 2738.29,1539.9 2742.58,1540.56C2747.82,1541.33 2751.72,1541.33 2755.05,1540.66C2757.72,1540.09 2765.53,1539.14 2772.39,1538.47C2779.24,1537.8 2787.34,1536.85 2790.39,1536.28C2793.43,1535.8 2801.05,1535.04 2807.43,1534.76C2815.34,1534.28 2821.15,1533.42 2826.2,1531.8C2831.34,1530.09 2835.82,1529.42 2841.62,1529.42C2849.24,1529.42 2850.29,1529.14 2858.96,1524.85C2868.67,1520.09 2870.96,1518.28 2871.53,1514.94C2871.82,1513.61 2872.67,1513.04 2873.91,1513.23C2885.72,1514.94 2891.15,1515.23 2895.24,1514.37C2915.91,1510.28 2918.01,1509.61 2934.39,1501.33C2943.43,1496.85 2952.01,1492.37 2953.43,1491.42C2954.77,1490.47 2957.43,1489.23 2959.34,1488.56C2961.24,1487.9 2966.01,1485.42 2969.91,1482.94C2973.82,1480.47 2980.67,1476.94 2985.05,1475.04C2996.29,1470.28 3000.39,1466.76 3012.96,1451.61C3018.96,1444.28 3027.15,1435.23 3031.05,1431.42C3035.05,1427.61 3039.43,1422.76 3040.77,1420.76C3045.24,1413.9 3045.62,1413.71 3051.91,1413.23C3056.77,1412.85 3059.34,1411.99 3065.15,1408.47C3075.05,1402.47 3091.53,1385.99 3108.48,1365.04C3111.72,1361.14 3115.43,1356.47 3116.86,1354.76C3120.01,1350.94 3123.62,1340.09 3126.29,1326.47C3128.96,1313.42 3128.96,1312.47 3125.82,1307.9C3124.48,1305.9 3123.43,1304.09 3123.62,1303.99C3123.72,1303.9 3125.24,1303.42 3126.86,1302.85C3129.43,1301.99 3130.2,1300.94 3132.01,1295.33C3133.15,1291.8 3135.81,1286.57 3137.91,1283.9C3142.29,1278.09 3143.72,1275.04 3145.72,1266.94C3146.58,1263.61 3148.2,1258.18 3149.43,1254.95C3151.43,1249.33 3151.62,1247.14 3151.62,1225.23C3151.53,1212.18 3151.34,1200.76 3151.05,1199.71C3150.77,1198.76 3150.01,1191.71 3149.43,1184.09C3148.77,1176.47 3147.72,1169.04 3147.05,1167.61C3146.29,1166.09 3144.96,1161.14 3143.91,1156.37C3141.24,1143.61 3140.39,1141.33 3137.15,1138.28L3134.1,1135.61L3137.15,1126.47L3131.43,1109.61C3123.72,1087.04 3122.2,1083.99 3111.05,1068.95C3108.58,1065.61 3105.43,1060.66 3103.91,1057.9C3102.48,1055.14 3099.15,1050.47 3096.58,1047.42C3093.91,1044.37 3089.91,1039.23 3087.72,1035.9C3079.05,1023.23 3061.15,1007.71 3048.77,1002.28C3046.39,1001.23 3044.39,999.898 3044.39,999.422C3044.39,998.946 3043.15,998.374 3041.62,998.279C3039.34,997.993 3038.86,997.422 3038.86,994.851C3038.77,986.184 3011.91,964.089 2987.91,952.851C2982.67,950.374 2977.82,948.374 2976.96,948.374C2976.2,948.374 2972.29,946.66 2968.2,944.565C2958.77,939.517 2952.96,937.803 2935.91,935.136C2918.1,932.279 2895.34,932.089 2881.43,934.66C2868.67,937.041 2866.39,937.232 2865.72,936.089C2865.43,935.612 2862.77,934.184 2859.91,932.851C2852.86,929.803 2838.39,928.851 2829.91,931.041ZM2618.77,1279.99C2619.72,1280.37 2620.39,1281.14 2620.39,1281.71C2620.39,1282.28 2616.01,1287.33 2610.67,1292.85C2594.77,1309.33 2583.43,1321.99 2573.91,1334.18C2568.96,1340.47 2561.05,1350.28 2556.39,1355.9C2551.34,1361.99 2544.67,1371.8 2539.91,1379.99C2535.53,1387.71 2529.53,1397.42 2526.58,1401.8C2521.53,1409.33 2515.62,1421.33 2509.15,1437.42C2505.05,1447.52 2503.43,1453.99 2503.43,1459.52C2503.43,1463.8 2503.82,1464.66 2509.24,1470.28C2514.39,1475.71 2514.77,1476.56 2512.96,1476.85C2495.15,1480.47 2474.39,1488.37 2464.2,1495.52C2460.39,1498.28 2459.82,1497.8 2462.58,1494.18C2464.01,1492.37 2465.91,1489.33 2466.86,1487.42C2467.82,1485.52 2471.24,1480.28 2474.39,1475.9C2477.53,1471.52 2481.53,1465.23 2483.34,1461.9L2486.58,1455.9L2482.77,1459.99C2477.91,1465.23 2466.67,1480.47 2463.34,1486.37C2462.01,1488.85 2458.58,1493.8 2455.82,1497.42C2453.05,1501.04 2449.72,1505.61 2448.48,1507.61C2445.91,1511.99 2437.72,1519.61 2431.91,1522.94C2427.62,1525.52 2424.2,1526.76 2401.91,1533.99C2374.39,1542.85 2358.2,1543.14 2332.86,1535.14C2323.24,1532.09 2317.62,1529.99 2316.86,1529.23C2316.29,1528.66 2329.05,1520.18 2335.15,1517.04C2340.48,1514.28 2353.05,1511.61 2365.91,1510.37C2379.05,1509.14 2399.34,1503.99 2407.82,1499.71C2420.77,1493.14 2438.96,1478.28 2444.77,1469.61C2447.15,1465.9 2449.43,1461.8 2449.82,1460.37C2450.58,1457.99 2450.48,1457.99 2447.91,1460.94C2446.39,1462.56 2443.91,1465.71 2442.39,1467.9C2436.86,1475.9 2411.62,1494.94 2402.1,1498.37C2390.48,1502.56 2375.43,1506.37 2367.91,1506.94C2357.24,1507.71 2343.91,1510.09 2338.39,1512.18C2331.15,1514.94 2317.05,1523.99 2308.1,1531.9C2293.62,1544.56 2279.62,1548.94 2257.05,1548.18C2228.86,1547.14 2197.91,1538.18 2183.91,1526.94C2181.72,1525.23 2176.77,1521.61 2172.86,1518.94L2165.91,1514.18L2170.67,1514.85C2173.34,1515.14 2179.53,1516.76 2184.39,1518.37C2193.24,1521.33 2193.34,1521.33 2206.1,1520.37C2230.58,1518.56 2243.72,1515.61 2259.05,1508.37C2270.96,1502.85 2276.77,1499.04 2292.67,1486.28C2321.05,1463.61 2329.34,1459.14 2347.34,1456.85C2364.39,1454.66 2373.34,1451.99 2388.2,1444.85C2400.48,1439.04 2410.2,1432.85 2408.96,1431.71C2408.77,1431.42 2403.24,1433.9 2396.67,1437.23C2375.43,1447.99 2369.53,1450.09 2351.91,1452.76C2338.48,1454.85 2327.24,1455.04 2313.43,1453.61C2294.2,1451.61 2278.67,1446.85 2252.58,1434.85C2249.72,1433.52 2246.77,1432.37 2246.1,1432.37C2244.67,1432.37 2222.39,1423.42 2216.67,1420.56C2208.29,1416.37 2186.1,1411.04 2172.39,1409.9C2164.58,1409.33 2149.34,1410.85 2142.77,1412.94C2139.53,1413.99 2151.53,1406.47 2159.53,1402.37C2166.39,1398.94 2171.24,1397.23 2186.86,1393.14C2192.77,1391.61 2229.91,1391.71 2234.86,1393.23C2237.05,1393.99 2242.96,1394.94 2247.91,1395.33C2252.86,1395.8 2262.48,1397.52 2269.43,1399.23C2276.29,1400.85 2283.91,1402.66 2286.39,1403.23C2292.77,1404.76 2323.34,1413.23 2326.86,1414.47C2328.58,1415.14 2334.96,1415.8 2341.15,1416.18C2359.62,1417.04 2374.01,1413.8 2385.82,1405.9C2391.34,1402.28 2411.62,1382.85 2420.96,1372.37C2424.67,1368.18 2435.34,1362.09 2450.39,1355.42C2452.58,1354.56 2452.29,1354.47 2448.39,1354.85C2443.05,1355.42 2439.34,1356.94 2417.62,1367.52C2401.24,1375.52 2395.82,1377.8 2378.86,1383.71C2370.2,1386.85 2369.34,1386.94 2353.91,1386.85C2339.91,1386.85 2336.39,1386.47 2325.91,1383.99C2307.82,1379.8 2302.2,1377.61 2280.48,1366.56C2265.91,1359.14 2258.86,1354.66 2247.72,1345.33C2237.34,1336.56 2228.48,1330.47 2220.86,1326.66C2210.67,1321.61 2193.34,1318.47 2174.2,1318.28L2166.58,1318.18L2169.24,1315.9C2177.82,1308.76 2203.91,1299.52 2221.82,1297.33C2232.86,1295.99 2240.86,1296.76 2254.39,1300.47C2267.82,1304.18 2277.43,1309.04 2284.29,1315.42C2287.24,1318.18 2291.05,1321.42 2292.77,1322.66C2294.48,1323.8 2299.05,1327.42 2302.96,1330.66C2310.48,1336.94 2315.24,1340.09 2322.2,1343.42C2325.91,1345.33 2327.53,1345.42 2336.2,1344.85C2353.05,1343.8 2368.96,1338.09 2385.91,1326.94C2404.77,1314.56 2410.58,1311.23 2422.39,1305.52C2429.24,1302.28 2439.62,1297.9 2445.43,1295.9C2451.15,1293.8 2458.96,1291.14 2462.67,1289.8C2471.53,1286.76 2487.82,1284.66 2509.43,1283.9C2519.05,1283.61 2536.86,1282.66 2549.15,1281.9C2561.43,1281.04 2575.34,1280.66 2580.2,1280.94C2586.96,1281.42 2612.77,1280.37 2616.58,1279.61C2616.96,1279.52 2617.91,1279.71 2618.77,1279.99ZM2853.72,1199.52C2854.86,1200.18 2856.01,1200.85 2856.2,1200.95C2856.39,1201.04 2854.67,1205.23 2852.48,1210.18C2850.2,1215.14 2848.39,1219.99 2848.39,1221.04C2848.39,1222.09 2847.43,1227.23 2846.29,1232.37C2843.34,1246.57 2840.77,1262.18 2838.96,1278.37C2838.01,1286.37 2836.58,1296.28 2835.82,1300.37C2833.24,1313.71 2832.29,1328.56 2833.34,1338.09C2833.91,1342.94 2834.39,1350.09 2834.39,1353.9C2834.39,1357.8 2835.05,1367.23 2835.91,1374.94C2836.77,1382.66 2837.91,1395.04 2838.39,1402.37C2839.05,1413.71 2839.82,1417.9 2842.86,1427.9C2844.96,1434.56 2847.62,1444.37 2848.96,1449.9C2851.53,1460.85 2852.86,1465.33 2856.86,1475.9C2858.39,1479.8 2860.2,1485.04 2860.86,1487.52C2862.48,1493.14 2865.62,1499.33 2869.43,1504.66C2871.05,1506.94 2872.39,1509.14 2872.39,1509.61C2872.39,1511.52 2866.48,1515.61 2856.86,1520.56C2846.96,1525.61 2846.77,1525.61 2840.01,1525.04C2834.39,1524.47 2831.91,1524.85 2825.53,1526.85C2820.67,1528.37 2813.34,1529.71 2805.43,1530.28C2798.48,1530.85 2790.2,1531.8 2786.86,1532.37C2776.58,1534.09 2753.05,1536.85 2748.86,1536.76C2739.43,1536.56 2712.48,1534.85 2712.1,1534.37C2711.82,1534.18 2709.34,1529.9 2706.58,1525.04C2700.67,1514.85 2698.29,1508.09 2695.34,1493.9C2693.43,1485.14 2693.24,1481.9 2693.82,1467.99C2694.2,1459.23 2694.67,1451.8 2694.86,1451.52C2695.05,1451.14 2696.2,1443.9 2697.34,1435.42C2698.58,1426.85 2701.15,1413.61 2703.05,1405.9C2704.96,1398.18 2707.15,1387.9 2707.91,1382.94C2709.62,1372.18 2710.58,1368.09 2714.58,1354.94C2719.15,1339.9 2724.39,1325.33 2726.67,1321.42C2727.72,1319.52 2731.05,1312.28 2734.1,1305.42C2740.86,1289.8 2744.77,1282.57 2753.24,1269.99C2756.86,1264.57 2761.43,1257.04 2763.43,1253.33C2774.58,1231.61 2785.91,1217.99 2799.15,1210.28C2808.29,1204.95 2812.29,1203.71 2822.86,1202.95C2830.48,1202.47 2847.91,1199.71 2851.24,1198.57C2851.34,1198.47 2852.48,1198.95 2853.72,1199.52ZM2325.72,1458.09C2328.29,1458.66 2328.1,1458.85 2321.72,1462.09C2317.82,1463.99 2306.48,1472.18 2295.43,1481.04C2284.67,1489.61 2275.05,1497.04 2274.01,1497.61C2272.1,1498.66 2270.2,1498.37 2250.86,1493.9C2227.24,1488.47 2201.15,1488.09 2180.39,1492.76C2164.58,1496.37 2149.91,1501.04 2143.43,1504.66C2138.1,1507.61 2136.01,1508.85 2122.58,1516.85C2119.05,1518.94 2116.1,1520.47 2115.82,1520.18C2115.05,1519.42 2127.53,1501.9 2132.67,1496.56C2138.29,1490.85 2148.86,1483.23 2156.86,1479.23C2175.82,1469.71 2209.91,1463.23 2250.39,1461.42C2268.96,1460.66 2298.39,1457.99 2300.86,1456.85C2302.2,1456.28 2322.1,1457.23 2325.72,1458.09ZM2894.29,1183.14C2894.96,1185.23 2897.15,1192.85 2899.34,1199.99C2903.34,1213.71 2909.34,1226.76 2917.43,1239.42C2920.01,1243.52 2925.43,1252.76 2929.34,1259.9C2933.34,1267.04 2940.67,1279.04 2945.62,1286.37C2954.67,1299.9 2962.39,1312.47 2963.62,1315.61C2964.96,1319.14 2986.2,1350.47 2993.34,1359.42C2997.43,1364.66 3003.34,1372.28 3006.48,1376.37C3014.01,1386.56 3027.62,1400.37 3034.67,1404.94C3039.62,1408.18 3040.39,1409.14 3040.39,1411.8C3040.39,1416.47 3035.43,1423.9 3028.86,1429.23C3025.62,1431.8 3021.43,1436.18 3019.43,1439.04C3014.48,1446.18 3000.86,1460.76 2994.86,1465.33C2992.1,1467.42 2986.29,1470.76 2981.82,1472.76C2977.34,1474.66 2971.24,1477.8 2968.29,1479.71C2965.34,1481.61 2960.2,1484.56 2956.86,1486.18C2953.53,1487.8 2947.43,1490.94 2943.34,1493.04C2939.15,1495.23 2934.67,1497.42 2933.34,1497.99C2932.01,1498.66 2927.53,1500.94 2923.43,1503.14C2919.24,1505.42 2913.15,1507.8 2909.91,1508.37C2906.58,1509.04 2900.96,1510.18 2897.43,1511.04C2890.96,1512.56 2877.34,1512.66 2877.43,1511.14C2877.43,1510.76 2875.72,1507.99 2873.53,1505.14C2869.05,1499.04 2865.82,1492.94 2863.91,1487.04C2863.15,1484.76 2860.96,1478.66 2858.86,1473.42C2856.86,1468.18 2854.1,1459.23 2852.77,1453.42C2851.34,1447.61 2848.29,1436.37 2845.91,1428.37C2842.58,1416.94 2841.53,1411.61 2840.96,1402.94C2840.58,1396.85 2839.91,1388.28 2839.43,1383.9C2838.96,1379.52 2838.1,1370.94 2837.43,1364.94C2835.43,1346.09 2835.62,1315.42 2837.82,1304.94C2838.77,1299.99 2840.01,1292.57 2840.48,1288.37C2842.1,1273.8 2844.29,1257.8 2846.39,1246.37C2847.53,1240.09 2849.15,1230.95 2850.01,1225.99C2851.53,1217.14 2855.24,1206.85 2859.62,1199.42C2862.96,1193.9 2880.29,1182.18 2887.82,1180.37C2892.77,1179.14 2892.96,1179.23 2894.29,1183.14ZM2263.91,1499.8L2269.91,1501.04L2266.86,1502.66C2263.91,1504.18 2263.62,1504.18 2259.43,1501.33C2254.58,1498.09 2255.15,1497.9 2263.91,1499.8ZM2202.48,1436.18C2210.29,1441.61 2214.39,1443.9 2222.58,1447.42C2226.58,1449.14 2231.91,1451.52 2234.39,1452.66C2236.86,1453.9 2242.48,1455.8 2246.86,1457.04L2254.86,1459.23L2246.77,1459.33C2242.39,1459.42 2233.82,1459.99 2227.82,1460.66C2210.48,1462.56 2207.53,1462.37 2205.91,1459.42C2201.15,1450.85 2195.43,1436.56 2195.43,1433.14C2195.34,1431.71 2197.15,1432.47 2202.48,1436.18ZM2236.86,1354.47C2241.05,1356.09 2247.05,1358.66 2250.2,1360.28C2253.34,1361.8 2260.58,1364.28 2266.39,1365.8C2276.29,1368.37 2279.82,1369.71 2296.86,1377.42C2306.1,1381.61 2309.72,1382.76 2322.86,1385.71C2340.39,1389.71 2348.58,1390.76 2359.62,1390.18C2368.77,1389.8 2371.62,1389.14 2385.43,1384.47C2393.91,1381.52 2403.34,1377.9 2406.39,1376.47C2409.43,1374.94 2412.96,1373.33 2414.29,1372.94L2416.67,1372.18L2414.48,1375.33C2410.48,1380.85 2390.48,1399.8 2384.1,1403.99C2376.77,1408.85 2367.82,1411.99 2356.86,1413.52C2347.72,1414.76 2333.53,1414.09 2326.58,1411.99C2324.01,1411.23 2317.43,1409.42 2311.91,1407.9C2306.39,1406.47 2298.29,1404.18 2293.91,1402.85C2289.53,1401.61 2282.77,1399.8 2278.86,1398.85C2264.01,1395.42 2260.77,1394.56 2255.91,1392.85C2253.15,1391.99 2248.86,1390.56 2246.39,1389.8C2240.39,1387.9 2236.01,1384.76 2234.48,1381.42C2231.05,1373.42 2223.82,1370.94 2218.86,1375.9C2217.53,1377.23 2216.39,1378.85 2216.39,1379.52C2216.39,1380.18 2217.34,1379.52 2218.48,1378.09C2220.1,1375.99 2221.43,1375.42 2224.39,1375.42C2227.82,1375.42 2228.67,1375.9 2230.86,1379.14C2232.39,1381.33 2233.43,1384.28 2233.43,1386.37C2233.43,1389.23 2233.62,1389.61 2234.67,1388.28C2235.72,1386.85 2236.29,1386.94 2239.91,1389.14C2243.15,1391.14 2243.43,1391.52 2241.24,1391.04C2234.29,1389.52 2211.82,1388.28 2202.2,1388.85C2192.01,1389.52 2191.43,1389.42 2189.43,1387.23C2184.77,1382.28 2185.53,1376.28 2191.91,1368.18C2194.39,1365.04 2197.62,1361.71 2199.15,1360.76C2200.67,1359.9 2203.62,1357.99 2205.72,1356.56C2209.53,1353.99 2218.77,1351.71 2225.62,1351.52C2227.62,1351.42 2232.77,1352.76 2236.86,1354.47ZM2930.67,1158.57C2935.72,1159.71 2945.72,1162.57 2952.86,1165.04C2960.01,1167.42 2967.91,1169.8 2970.39,1170.37C2978.58,1172.09 2989.72,1178.09 3003.91,1188.37C3023.91,1202.95 3024.86,1203.71 3046.86,1225.99C3057.91,1237.14 3071.82,1250.57 3077.91,1255.9C3083.91,1261.23 3091.15,1268.18 3093.91,1271.33C3103.82,1282.76 3111.91,1292.66 3114.01,1296.09C3115.15,1297.9 3117.24,1300.66 3118.67,1302.18C3123.24,1307.04 3124.77,1312.57 3124.01,1321.71C3122.48,1340.56 3119.05,1347.52 3101.62,1367.71C3097.34,1372.56 3092.39,1378.47 3090.58,1380.66C3084.48,1388.28 3070.01,1401.9 3063.43,1406.18C3059.62,1408.76 3055.24,1410.76 3052.86,1411.04C3049.24,1411.61 3048.1,1411.14 3040.86,1406.28C3031.05,1399.8 3015.15,1384.09 3005.62,1371.42C3001.62,1366.18 2996.58,1359.71 2994.39,1356.94C2988.39,1349.42 2968.86,1320.37 2965.82,1314.28C2964.39,1311.33 2957.62,1300.57 2950.86,1290.37C2944.1,1280.28 2935.34,1266.09 2931.34,1258.95C2927.43,1251.8 2921.34,1241.42 2917.91,1235.9C2914.48,1230.37 2910.1,1222.57 2908.1,1218.37C2903.43,1208.37 2894.39,1179.61 2894.39,1174.66C2894.39,1170.95 2898.2,1160.57 2900.58,1157.71C2902.29,1155.61 2920.1,1156.09 2930.67,1158.57ZM2521.05,1315.42C2519.15,1317.04 2517.15,1318.37 2516.48,1318.37C2515.91,1318.37 2514.67,1319.52 2513.82,1320.85C2512.01,1323.71 2512.58,1331.9 2514.96,1336.37C2519.24,1344.85 2528.67,1347.71 2537.34,1343.23C2542.96,1340.37 2545.43,1336.18 2546.1,1328.37C2546.67,1322.56 2546.58,1322.37 2543.05,1319.04C2539.34,1315.52 2532.01,1312.37 2527.24,1312.37C2525.53,1312.37 2523.05,1313.61 2521.05,1315.42ZM2986.39,1099.33C2993.24,1099.99 3006.01,1100.85 3014.77,1101.42C3031.43,1102.47 3047.15,1104.85 3051.43,1106.95C3052.77,1107.61 3060.48,1109.61 3068.58,1111.33C3076.58,1113.04 3087.62,1116.09 3093.05,1118.09C3098.48,1119.99 3104.96,1122.18 3107.43,1122.95C3115.82,1125.33 3123.72,1130.28 3130.67,1137.71C3134.39,1141.61 3137.72,1145.99 3138.01,1147.33C3140.01,1157.42 3141.72,1164.37 3142.58,1166.95C3145.43,1175.14 3147.43,1198.47 3147.43,1225.52C3147.43,1245.8 3147.15,1248.76 3145.34,1253.99C3144.2,1257.23 3142.48,1263.14 3141.43,1267.04C3139.72,1274.09 3138.77,1276.09 3133.05,1284.18C3131.24,1286.85 3130.01,1290.28 3129.43,1293.9C3128.58,1300.28 3127.82,1301.42 3123.91,1301.71C3121.62,1301.9 3120.48,1301.04 3117.72,1297.42C3102.01,1276.18 3092.58,1265.33 3079.15,1253.23C3072.96,1247.71 3058.01,1233.14 3045.91,1220.95C3033.15,1208.09 3021.34,1197.14 3017.91,1194.85C3014.58,1192.76 3007.62,1187.9 3002.39,1183.99C2990.39,1175.14 2981.05,1170.37 2969.24,1167.04C2964.1,1165.52 2957.91,1163.42 2955.43,1162.28C2947.05,1158.57 2924.39,1153.23 2914.77,1152.66L2905.72,1152.18L2904.58,1149.04C2902.96,1144.37 2902.67,1117.42 2904.2,1114.66C2905.82,1111.71 2911.82,1108.76 2920.1,1106.85C2923.72,1105.99 2927.72,1104.76 2928.77,1104.18C2933.62,1101.61 2945.72,1099.23 2957.43,1098.47C2964.29,1098.09 2970.77,1097.8 2971.91,1097.99C2972.96,1098.18 2979.53,1098.76 2986.39,1099.33ZM2708.39,1206.18C2714.48,1207.04 2718.01,1208.66 2717.05,1210.18C2716.67,1210.66 2713.43,1212.57 2709.82,1214.28C2706.2,1215.99 2700.48,1219.33 2697.24,1221.52C2693.91,1223.8 2689.24,1226.47 2686.77,1227.61C2678.67,1231.14 2661.05,1244.09 2648.86,1255.52C2639.43,1264.28 2634.86,1266.47 2614.39,1271.52C2612.48,1271.99 2604.77,1273.14 2597.43,1273.99C2590.01,1274.85 2580.77,1275.99 2576.86,1276.47C2568.39,1277.61 2547.34,1278.94 2509.43,1280.94C2493.72,1281.71 2474.1,1282.85 2465.91,1283.42C2438.67,1285.33 2413.82,1284.66 2414.67,1281.99C2415.72,1278.94 2440.67,1273.42 2453.43,1273.42C2458.58,1273.42 2464.48,1272.94 2466.39,1272.37C2468.29,1271.8 2476.01,1269.99 2483.43,1268.37C2503.24,1263.99 2538.29,1252.57 2550.2,1246.57C2559.91,1241.71 2573.82,1233.99 2577.24,1231.52C2582.39,1227.9 2627.62,1215.61 2658.86,1209.42C2663.82,1208.37 2672.58,1207.14 2678.29,1206.57C2683.91,1205.99 2688.86,1205.23 2689.24,1204.85C2689.91,1204.18 2697.05,1204.76 2708.39,1206.18ZM2664.58,1116.95C2668.2,1120.76 2678.77,1128.28 2687.43,1133.14C2699.82,1140.09 2734.2,1152.37 2746.77,1154.37C2763.05,1156.95 2775.43,1157.71 2781.15,1156.76C2784.29,1156.18 2787.43,1155.9 2788.2,1156.18C2788.86,1156.47 2790.77,1158.66 2792.48,1161.04C2794.77,1164.37 2795.24,1165.99 2794.77,1168.09C2793.91,1171.33 2778.29,1187.23 2773.24,1189.8C2770.01,1191.52 2769.43,1191.61 2766.77,1190.18C2757.15,1185.14 2757.91,1185.33 2752.29,1186.57C2746.96,1187.8 2744.01,1189.42 2729.43,1199.42L2722.01,1204.47L2712.48,1203.9C2703.05,1203.33 2685.82,1199.23 2678.96,1195.8C2674.39,1193.61 2667.53,1183.42 2664.2,1173.99C2661.24,1165.14 2657.62,1144.18 2657.34,1133.42C2657.05,1123.71 2658.39,1113.42 2659.91,1113.42C2660.67,1113.42 2662.67,1115.04 2664.58,1116.95ZM2805.82,1173.04C2809.62,1175.14 2814.1,1177.04 2815.82,1177.42C2818.67,1177.99 2818.86,1178.37 2818.67,1181.99C2818.48,1187.52 2814.86,1196.76 2811.43,1200.37C2808.86,1203.14 2808.01,1203.42 2802.77,1203.42C2797.24,1203.42 2787.53,1200.18 2775.15,1194.37C2772.48,1193.14 2771.43,1191.42 2773.34,1191.42C2775.43,1191.42 2792.2,1176.37 2794.86,1172.18C2795.82,1170.66 2797.15,1169.42 2797.82,1169.42C2798.39,1169.42 2802.1,1171.04 2805.82,1173.04ZM2856.58,1078.57C2862.29,1079.14 2868.1,1080.28 2869.72,1081.04C2875.72,1084.18 2891.43,1101.71 2895.82,1110.18C2898.39,1115.33 2900.86,1139.8 2899.43,1146.76C2898.77,1149.9 2897.82,1152.37 2897.34,1152.37C2896.77,1152.37 2896.39,1153.42 2896.39,1154.66C2896.39,1155.99 2894.39,1161.42 2891.91,1166.85C2887.53,1176.66 2887.53,1176.66 2882.1,1178.85C2879.15,1180.09 2874.96,1182.47 2872.77,1184.09C2864.48,1190.57 2859.91,1192.09 2862.29,1187.61C2862.86,1186.47 2863.43,1184.37 2863.43,1182.95C2863.43,1180.76 2862.96,1180.37 2860.39,1180.37L2857.34,1180.37L2858.96,1177.33C2860.96,1173.52 2860.1,1172.37 2857.91,1175.8C2855.62,1179.33 2856.29,1181.9 2859.62,1182.28C2861.15,1182.37 2862.39,1182.76 2862.39,1183.04C2862.39,1184.28 2857.43,1193.14 2856.2,1194.09C2854.86,1195.04 2844.2,1197.8 2837.05,1199.04C2833.34,1199.61 2833.24,1199.61 2834.29,1197.61C2834.86,1196.47 2835.82,1195.23 2836.39,1194.95C2836.96,1194.57 2837.43,1193.23 2837.43,1191.9C2837.43,1189.99 2836.86,1189.42 2835.05,1189.42C2831.72,1189.42 2831.24,1188.57 2833.05,1185.8C2835.05,1182.76 2833.05,1182.66 2830.96,1185.61C2828.67,1188.95 2829.05,1190.37 2832.39,1191.04C2835.91,1191.8 2836.1,1192.47 2833.43,1194.95C2832.29,1195.9 2831.43,1197.33 2831.43,1197.99C2831.43,1199.61 2828.1,1200.37 2820.67,1200.37C2814.77,1200.37 2812.86,1199.42 2815.53,1197.9C2816.96,1196.95 2819.24,1191.42 2821.24,1183.9L2822.86,1177.9L2827.91,1177.42C2830.67,1177.04 2833.91,1176.28 2835.05,1175.61C2836.29,1174.95 2838.39,1174.37 2839.72,1174.37C2843.24,1174.37 2846.96,1184.28 2845.91,1191.04C2845.05,1196.76 2847.34,1196.85 2848.77,1191.04C2849.43,1188.09 2849.15,1186.09 2847.43,1181.61C2846.29,1178.47 2844.58,1175.23 2843.72,1174.28C2842.77,1173.23 2842.48,1171.99 2843.05,1171.14C2844.86,1168.09 2856.39,1159.42 2858.67,1159.42C2863.05,1159.42 2869.24,1168.76 2870.96,1177.99C2871.91,1182.95 2873.72,1182.37 2872.86,1177.33C2871.72,1170.28 2867.91,1163.14 2862.86,1158.66C2858.67,1154.85 2858.2,1153.99 2858.77,1151.23C2859.15,1149.52 2859.43,1146.66 2859.43,1144.76C2859.43,1140.37 2860.96,1139.8 2869.24,1141.42C2880.29,1143.61 2887.62,1147.9 2892.2,1154.95C2893.34,1156.76 2893.43,1156.66 2892.86,1153.9C2892.01,1149.42 2884.58,1143.14 2877.72,1141.04C2866.86,1137.71 2865.72,1137.42 2863.34,1137.42C2858.58,1137.33 2854.77,1132.28 2856.29,1128.18C2858.29,1122.95 2870.67,1118.47 2882.86,1118.37C2888.39,1118.37 2890.39,1118.09 2889.43,1117.42C2884.77,1114.47 2863.91,1117.8 2857.15,1122.57C2855.53,1123.71 2853.24,1124.37 2851.62,1124.28C2849.24,1123.99 2848.86,1123.52 2848.67,1119.9C2848.39,1116.47 2849.05,1115.14 2853.43,1109.61C2857.82,1104.28 2864.48,1098.47 2872.01,1093.71C2873.82,1092.57 2873.82,1092.57 2871.82,1092.47C2866.58,1092.37 2852.39,1104.95 2847.91,1113.71C2844.77,1119.9 2842.39,1121.04 2836.39,1119.04C2832.1,1117.71 2831.62,1115.23 2833.34,1105.14C2834.29,1099.99 2835.82,1096.47 2840.01,1089.8C2842.96,1085.04 2845.43,1080.95 2845.43,1080.66C2845.43,1079.33 2840.86,1084.37 2837.24,1089.71C2832.1,1097.14 2830.39,1102.28 2829.91,1110.85C2829.62,1114.66 2829.05,1118.09 2828.58,1118.66C2826.86,1120.28 2819.62,1119.9 2817.53,1118.09C2814.58,1115.42 2812.01,1104.76 2812.58,1097.42C2812.96,1092.09 2812.86,1091.42 2811.72,1093.04C2809.15,1096.57 2810.96,1111.14 2814.77,1116.95C2818.1,1121.99 2815.53,1129.42 2810.48,1129.42C2807.24,1129.42 2798.1,1124.28 2795.91,1121.23C2794.86,1119.61 2794.39,1119.42 2794.39,1120.47C2794.39,1122.85 2800.29,1127.99 2805.91,1130.57C2810.67,1132.85 2810.86,1133.14 2811.15,1137.42C2811.53,1144.57 2809.24,1146.66 2801.05,1146.85C2794.58,1146.95 2792.77,1147.61 2796.01,1148.85C2798.77,1149.9 2803.82,1149.52 2808.58,1147.71C2813.24,1146.09 2813.24,1146.09 2815.82,1148.47C2817.24,1149.8 2818.39,1151.9 2818.39,1153.04C2818.39,1156.18 2812.67,1164.18 2809.62,1165.23C2807.24,1166.09 2807.15,1166.28 2808.67,1166.95C2811.24,1167.99 2815.05,1164.95 2819.34,1158.57C2822.39,1153.99 2823.24,1153.33 2825.82,1153.61C2829.62,1153.99 2831.34,1157.23 2831.34,1163.71C2831.34,1166.28 2831.82,1168.37 2832.39,1168.37C2834.1,1168.37 2834.77,1163.14 2833.53,1158.76C2832.86,1156.37 2832.39,1153.71 2832.39,1152.85C2832.39,1150.95 2838.01,1145.42 2840.01,1145.42C2840.77,1145.42 2843.15,1147.04 2845.34,1148.95C2848.96,1152.28 2851.05,1152.37 2849.91,1149.23C2849.05,1147.23 2843.05,1143.42 2840.67,1143.42C2839.53,1143.42 2838.29,1142.66 2837.91,1141.71C2837.34,1140.09 2837.15,1140.09 2836.2,1141.9C2835.62,1143.04 2834.39,1144.66 2833.62,1145.71C2832.2,1147.33 2832.01,1147.33 2830.77,1145.71C2829.53,1144.09 2829.43,1144.18 2829.43,1146.66C2829.34,1152.37 2820.96,1150.76 2816.01,1144.09C2813.24,1140.47 2813.34,1135.14 2816.29,1129.04C2819.15,1123.14 2822.67,1121.42 2831.72,1121.42C2838.96,1121.42 2845.72,1123.42 2849.24,1126.66C2853.43,1130.57 2856.39,1138.66 2856.39,1146.28C2856.39,1154.66 2853.91,1158.85 2844.96,1165.61C2835.53,1172.76 2831.34,1174.37 2821.53,1174.37C2813.91,1174.37 2812.58,1174.09 2806.58,1170.95C2795.72,1165.23 2790.77,1157.52 2789.34,1143.8C2788.2,1132.76 2789.53,1118.09 2792.29,1111.99C2794.86,1105.99 2801.62,1097.42 2809.53,1089.8C2822.2,1077.71 2830.58,1075.71 2856.58,1078.57ZM2878.96,1159.61C2875.91,1163.9 2877.62,1166.95 2882.29,1165.71C2884.77,1165.14 2884.96,1166.37 2883.05,1170.18C2880.58,1175.04 2880.1,1177.42 2881.72,1177.42C2883.34,1177.42 2886.39,1170.09 2886.39,1166.18C2886.39,1163.42 2885.82,1163.04 2881.62,1163.42C2879.05,1163.61 2878.96,1163.14 2880.48,1160.28C2882.01,1157.42 2880.86,1156.85 2878.96,1159.61ZM2698.67,1066.37C2704.58,1074.66 2718.86,1088.47 2726.1,1093.04C2727.62,1093.99 2730.29,1095.99 2732.01,1097.42C2733.72,1098.95 2739.05,1102.66 2744.01,1105.9C2748.86,1109.04 2754.77,1112.95 2757.05,1114.47C2759.34,1116.09 2764.96,1119.23 2769.53,1121.42C2776.29,1124.76 2778.58,1125.42 2781.53,1124.85C2783.62,1124.57 2785.43,1124.76 2785.82,1125.33C2786.2,1125.9 2786.67,1131.71 2786.96,1138.18C2787.53,1153.71 2786.96,1154.57 2775.72,1155.14C2762.96,1155.9 2744.67,1153.14 2729.91,1148.37C2716.67,1144.09 2694.01,1133.52 2679.91,1125.04C2669.62,1118.85 2659.82,1110.85 2660.39,1109.23C2660.48,1109.04 2659.82,1107.23 2658.96,1105.23C2656.48,1099.33 2656.77,1074.66 2659.43,1064.09C2662.29,1052.85 2667.62,1042.28 2673.72,1035.61L2678.86,1029.9L2685.62,1043.71C2689.24,1051.23 2695.15,1061.42 2698.67,1066.37ZM2819.62,1142.47C2820.86,1143.23 2821.91,1143.23 2823.15,1142.47C2824.58,1141.71 2824.2,1141.52 2821.43,1141.52C2818.58,1141.52 2818.2,1141.71 2819.62,1142.47ZM2841.15,1129.99C2839.62,1130.85 2838.39,1132.18 2838.39,1132.95C2838.39,1134.85 2838.58,1134.85 2842.86,1132.28C2844.77,1131.14 2846.1,1129.8 2845.82,1129.33C2845.05,1128.09 2844.39,1128.18 2841.15,1129.99ZM2823.43,1128.76C2823.43,1129.52 2824.29,1130.95 2825.43,1131.9C2827.72,1134.09 2828.2,1132.09 2826.01,1129.14C2824.39,1127.04 2823.43,1126.95 2823.43,1128.76ZM3048.29,1004.09C3061.15,1011.61 3078.48,1027.42 3085.43,1037.9C3087.24,1040.66 3091.05,1045.61 3093.91,1048.95C3096.77,1052.18 3100.29,1057.14 3101.62,1059.9C3103.05,1062.66 3106.39,1067.71 3109.05,1071.14C3117.05,1081.52 3120.01,1086.66 3123.91,1097.04C3130.48,1114.66 3132.67,1121.8 3132.67,1126.66C3132.77,1131.9 3132.1,1133.23 3130.2,1131.71C3129.43,1131.14 3127.72,1130.37 3126.29,1130.09C3124.86,1129.71 3121.34,1127.8 3118.48,1125.9C3115.53,1123.9 3111.34,1121.61 3109.05,1120.85C3106.77,1120.09 3104.01,1118.95 3102.86,1118.47C3092.67,1113.61 3086.1,1111.52 3067.53,1107.42C3060.2,1105.71 3052.96,1103.8 3051.53,1103.04C3046.77,1100.66 3031.53,1098.47 3012.01,1097.42C3001.43,1096.85 2988.1,1095.9 2982.2,1095.23C2967.05,1093.71 2947.62,1094.95 2936.58,1098.09C2931.82,1099.52 2924.1,1101.61 2919.43,1102.85C2914.67,1104.18 2909.53,1105.99 2907.82,1106.95C2903.24,1109.61 2899.53,1107.71 2893.91,1099.9C2891.43,1096.47 2888.01,1092.37 2886.29,1090.76C2878.2,1083.33 2872.39,1077.14 2872.39,1075.99C2872.39,1074.57 2887.24,1059.8 2897.91,1050.66C2909.53,1040.76 2920.29,1033.52 2931.43,1028.18C2937.15,1025.52 2943.91,1021.99 2946.39,1020.37C2953.82,1015.8 3005.72,1003.61 3021.91,1002.75C3026.86,1002.47 3031.05,1002.09 3031.34,1001.8C3031.53,1001.61 3034.39,1001.42 3037.72,1001.42C3042.39,1001.42 3044.67,1001.99 3048.29,1004.09ZM2767.34,958.184C2766.01,959.708 2764.01,961.803 2762.77,962.946C2760.1,965.422 2757.72,974.851 2756.96,986.374C2756.2,996.66 2757.72,1017.61 2759.72,1025.9C2760.48,1029.23 2762.2,1036.18 2763.43,1041.42C2764.67,1046.66 2766.29,1052.37 2767.05,1054.09C2767.72,1055.8 2769.05,1060.76 2769.91,1065.04C2770.77,1069.42 2772.48,1074.47 2773.53,1076.37C2774.67,1078.37 2776.2,1082.28 2776.96,1085.23C2779.15,1093.33 2782.01,1098.09 2786.86,1101.61C2789.34,1103.42 2791.34,1105.61 2791.34,1106.57C2791.43,1108.66 2785.53,1121.71 2784.01,1122.76C2782.01,1124.09 2776.58,1122.66 2768.58,1118.57C2758.77,1113.61 2739.91,1102.09 2735.72,1098.57C2718.39,1084.09 2708.01,1074.76 2705.72,1071.61C2704.2,1069.61 2701.34,1065.71 2699.24,1062.95C2694.48,1056.57 2681.43,1029.99 2681.43,1026.76C2681.43,1022.47 2687.43,1010.18 2693.15,1002.95C2697.82,996.946 2703.05,992.184 2715.91,981.993C2717.53,980.66 2722.67,977.232 2727.43,974.374C2752.77,958.66 2759.24,955.517 2766.29,955.422L2769.72,955.422L2767.34,958.184ZM2857.43,935.136C2860.39,935.993 2863.43,936.851 2864.2,937.041C2865.91,937.517 2864.58,939.898 2859.34,945.898C2857.15,948.47 2855.43,950.946 2855.43,951.422C2855.43,952.279 2852.77,956.851 2846.2,967.517C2837.62,981.517 2829.91,1000.75 2828.39,1011.9C2827.72,1016.85 2826.29,1025.61 2825.15,1031.42C2821.53,1050.18 2819.62,1064.09 2819.91,1069.9C2820.01,1072.09 2819.53,1075.14 2818.77,1076.66C2818.01,1078.18 2817.24,1079.71 2817.15,1080.18C2817.05,1080.57 2815.43,1082.09 2813.43,1083.52C2811.53,1084.95 2806.77,1089.42 2802.86,1093.61C2799.05,1097.71 2794.77,1101.33 2793.43,1101.71C2788.01,1103.14 2782.2,1095.9 2779.34,1083.9C2778.67,1081.14 2777.34,1077.61 2776.39,1075.9C2775.43,1074.28 2774.1,1070.47 2773.43,1067.42C2772.67,1064.37 2770.67,1056.76 2768.86,1050.37C2761.43,1024.57 2760.2,1016.66 2760.1,997.041C2760.01,972.089 2760.96,968.851 2771.34,957.422C2778.96,949.136 2779.43,948.851 2789.05,945.232C2794.48,943.136 2801.82,940.851 2805.43,939.993C2812.86,938.279 2834.67,933.708 2838.39,933.041C2842.39,932.374 2851.43,933.422 2857.43,935.136ZM2931.62,937.993C2952.48,941.708 2958.1,943.136 2964.86,946.946C2968.2,948.755 2973.82,951.232 2977.43,952.47C2993.15,957.708 3012.58,969.898 3026.29,983.231C3033.91,990.66 3035.43,992.565 3035.43,995.136C3035.43,998.279 3035.34,998.279 3028.67,999.041C3024.96,999.422 3020.58,999.708 3018.86,999.708C3017.24,999.612 3012.29,1000.47 3007.91,1001.42C3003.53,1002.47 2995.43,1004.18 2989.91,1005.42C2984.39,1006.57 2977.62,1008.18 2974.86,1008.95C2972.1,1009.8 2966.1,1011.33 2961.43,1012.47C2949.62,1015.42 2922.39,1029.04 2908.86,1038.95C2903.15,1043.04 2891.82,1052.95 2883.62,1060.76L2868.86,1075.14L2862.86,1075.8C2852.77,1076.85 2828.58,1075.61 2825.91,1073.8C2822.58,1071.71 2821.53,1067.8 2822.48,1061.42C2824.77,1045.42 2825.43,1041.23 2826.77,1036.28C2827.53,1033.33 2828.67,1027.52 2829.34,1023.42C2829.91,1019.33 2830.96,1013.04 2831.43,1009.61C2832.86,1000.85 2840.58,982.66 2848.96,968.66C2855.24,957.898 2860.39,950.089 2863.91,945.612C2868.48,939.803 2874.86,936.184 2879.05,936.946C2880.67,937.232 2883.91,937.041 2886.39,936.565C2895.82,934.66 2916.58,935.232 2931.62,937.993Z" style="fill-rule:nonzero;"/>
        </g>
    </g>
</svg>
